<svg width="162" height="64" viewBox="0 0 162 64" fill="none" xmlns="http://www.w3.org/2000/svg">
<path d="M0 47.1952V47.6539H7.09833V47.1952C5.68793 47.1952 4.45708 47.1813 4.45708 47.1813C16.0504 24.245 13.1356 26.4636 24.2597 47.6539H37.6381C32.0834 35.7856 26.8239 23.7394 20.6563 12.1796L17.9341 17.2813C14.1261 25.107 3.30153 47.1813 3.30153 47.1813C3.30153 47.1813 1.48569 47.1952 0 47.1952Z" fill="white"/>
<path d="M54.1536 47.6539V47.1952H51.3391L27.7542 0L22.9453 9.10516C24.2659 12.0614 37.4942 38.9161 41.6527 47.6539H54.1536Z" fill="white"/>
<path d="M157.858 64C156.712 64 155.765 63.7888 154.918 63.4067V62.5317C155.835 62.9843 156.772 63.1754 157.838 63.1754C159.164 63.1754 160.041 62.9038 160.041 62.1194C160.041 60.0779 154.908 61.3852 154.908 58.6599C154.908 57.3525 156.064 56.7591 157.808 56.7591C158.805 56.7591 159.802 56.9502 160.51 57.262V58.1168C159.732 57.7548 158.815 57.5737 157.838 57.5737C156.533 57.5838 155.785 57.8654 155.785 58.6196C155.785 60.45 160.908 59.3739 160.908 62.059C160.908 63.477 159.672 64 157.858 64Z" fill="white"/>
<path d="M138.11 63.8994V56.8597H143.861V57.6844H138.967V59.9371H143.562V60.7617H138.967V63.0748H143.931V63.8994H138.11Z" fill="white"/>
<path d="M125.291 63.8994V56.8597H126.148V63.8994H125.291Z" fill="white"/>
<path d="M110.419 63.8994V57.6844H107.478V56.8597H114.216V57.6844H111.276V63.8994H110.419Z" fill="white"/>
<path d="M90.7276 63.8994V56.8597H94.3855C95.7311 56.8597 97.0866 57.3827 97.0866 59.0219C97.0866 60.2187 96.3191 60.9025 95.2527 61.1238L97.4852 63.8994H96.4088L94.256 61.2042H91.5848V63.8994H90.7276ZM91.5848 60.3796H94.3755C95.3224 60.3796 96.2095 60.098 96.2095 59.0219C96.2095 57.9458 95.3224 57.6844 94.3755 57.6844H91.5848V60.3796Z" fill="white"/>
<path d="M73.4411 63.8994V56.8597H79.192V57.6844H74.2982V59.9371H78.893V60.7617H74.2982V63.0748H79.2618V63.8994H73.4411Z" fill="white"/>
<path d="M55.7849 63.8994V56.8597H59.1737C60.7884 56.8597 62.1339 57.3726 62.1339 59.1325C62.1339 60.9025 60.7884 61.4054 59.1737 61.4054H56.6421V63.8994H55.7849ZM56.6421 60.5908H59.2036C60.3299 60.5908 61.2568 60.3092 61.2568 59.1325C61.2568 57.9559 60.3398 57.6844 59.2036 57.6844H56.6421V60.5908Z" fill="white"/>
<path d="M40.1996 64C37.2594 64 36.0235 62.1797 36.0235 60.3796C36.0235 58.5794 37.2594 56.7591 40.1996 56.7591C43.1399 56.7591 44.3758 58.5794 44.3758 60.3796C44.3758 62.1797 43.1399 64 40.1996 64ZM36.9006 60.3796C36.9006 61.7875 37.8674 63.1754 40.1996 63.1754C42.5319 63.1754 43.4987 61.7875 43.4987 60.3796C43.4987 58.9716 42.5319 57.5838 40.1996 57.5838C37.8674 57.5838 36.9006 58.9716 36.9006 60.3796Z" fill="white"/>
<path d="M18.6522 63.8994V56.8597H22.3101C23.6556 56.8597 25.0111 57.3827 25.0111 59.0219C25.0111 60.2187 24.2437 60.9025 23.1772 61.1238L25.4098 63.8994H24.3334L22.1805 61.2042H19.5093V63.8994H18.6522ZM19.5093 60.3796H22.3001C23.247 60.3796 24.134 60.098 24.134 59.0219C24.134 57.9458 23.247 57.6844 22.3001 57.6844H19.5093V60.3796Z" fill="white"/>
<path d="M0.995823 63.8994V56.8597H4.3846C5.99925 56.8597 7.34479 57.3726 7.34479 59.1325C7.34479 60.9025 5.99925 61.4054 4.3846 61.4054H1.85298V63.8994H0.995823ZM1.85298 60.5908H4.4145C5.54077 60.5908 6.4677 60.3092 6.4677 59.1325C6.4677 57.9559 5.55073 57.6844 4.4145 57.6844H1.85298V60.5908Z" fill="white"/>
<path d="M149.292 48.5822C140.437 48.5822 134.744 41.7359 134.744 33.1489C134.744 24.62 140.724 17.7157 149.465 17.7157C156.652 17.7157 161.885 23.1115 161.885 31.7565H140.494V32.3367C140.494 39.7052 140.839 47.7119 150.04 47.7119C156.422 47.7119 160.16 43.8246 161.252 40.6335H162C160.505 45.7973 154.927 48.5822 149.292 48.5822ZM140.494 31.1763H156.192C156.192 23.1115 152.57 18.586 148.43 18.586C143.829 18.586 140.724 22.2412 140.494 31.1763Z" fill="white"/>
<path d="M122.141 18.6441H128.466V19.2243H122.141V37.1525C122.141 45.7973 123.234 47.4798 125.419 47.4798C128.409 47.4798 129.559 44.2887 129.559 43.0703H130.134C130.134 45.159 128.409 48.5822 123.521 48.5822C119.324 48.5822 117.196 46.0874 117.196 37.2685V19.2243H114.379V18.6441H117.196V10.1152L121.566 8.49068H122.141V18.6441Z" fill="white"/>
<path d="M96.7952 48.5822C87.9399 48.5822 82.2473 41.7359 82.2473 33.1489C82.2473 24.62 88.2275 17.7157 96.9677 17.7157C104.155 17.7157 109.388 23.1115 109.388 31.7565H87.9974V32.3367C87.9974 39.7052 88.3425 47.7119 97.5428 47.7119C103.925 47.7119 107.663 43.8246 108.756 40.6335H109.503C108.008 45.7973 102.43 48.5822 96.7952 48.5822ZM87.9974 31.1763H103.695C103.695 23.1115 100.073 18.586 95.9327 18.586C91.3326 18.586 88.2275 22.2412 87.9974 31.1763Z" fill="white"/>
<path d="M57.109 47.6539V47.0737H59.9266V19.2242H57.0515V18.644H64.8718V25.8965C66.3668 21.1388 70.3919 17.7157 74.3596 17.7157C77.2346 17.7157 78.7872 19.5723 78.7872 21.719C78.7872 24.0398 77.0046 25.8384 74.7621 25.8384C72.5195 25.8384 70.7369 24.0398 70.7369 21.7771C70.7369 20.6167 71.197 19.5723 72.002 18.818C67.9193 20.3266 64.8718 24.9101 64.8718 29.6678V47.0737H67.7468V47.6539H57.109Z" fill="white"/>
</svg>
